# xmcd CD database file
#
# Track frame offsets:
#	182
#	10350
#	23720
#	44092
#	56167
#	67352
#	80577
#	89952
#	103312
#	115430
#
# Disc length: 1754 seconds
#
# Revision: 4
# Processed by: cddbd v1.5.2PL0 Copyright (c) Steve Scherf et al.
# Submitted via: jetAudio 7
#
DISCID=9c06d80a
DTITLE=Various Artist - Christmas Country
DYEAR=1900
DGENRE=country
TTITLE0=Little Texas - Here Comes Santa Claus
TTITLE1=Clay Walker - Blue Christmas
TTITLE2=Michael Martin Murphey - Two-Step 'Round the Christmas Tree/Two
TTITLE2=Step Medley
TTITLE3=Dwight Yoakam - Santa Claus is Back in Town
TTITLE4=Travis Tritt - Santa Looked a Lot Like Daddy
TTITLE5=Holly Dunn - Feliz Navidad
TTITLE6=Randy Travis - Santa Claus is Coming to Town
TTITLE7=The Sky Kings - Christmas Everyday
TTITLE8=Kenny Rogers - I'll Be Home For Christmas
TTITLE9=The A Strings with Kathy Mattea - The Christmas Song
EXTD=
EXTT0=
EXTT1=
EXTT2=
EXTT3=
EXTT4=
EXTT5=
EXTT6=
EXTT7=
EXTT8=
EXTT9=
PLAYORDER=
